<?xml version="1.0" standalone="no"?>
<!DOCTYPE svg PUBLIC "-//W3C//DTD SVG 20010904//EN"
 "http://www.w3.org/TR/2001/REC-SVG-20010904/DTD/svg10.dtd">
<svg version="1.0" xmlns="http://www.w3.org/2000/svg"
 width="1260.000000pt" height="562.000000pt" viewBox="0 0 1260.000000 562.000000"
 preserveAspectRatio="xMidYMid meet">

<g transform="translate(0.000000,562.000000) scale(0.100000,-0.100000)"
fill="#000000" stroke="none">
<path d="M9515 5578 c-236 -24 -497 -97 -686 -194 -243 -124 -427 -297 -547
-516 -51 -91 -116 -283 -135 -398 -14 -81 -14 -83 -21 -45 -73 409 -272 672
-648 855 -173 85 -427 158 -678 194 -284 42 -236 41 -3300 41 l-2945 0 -21
-565 c-12 -311 -24 -616 -27 -677 l-5 -113 37 0 38 0 12 163 c16 220 38 386
62 482 96 378 299 552 724 621 76 12 199 17 508 21 l407 5 -2 -2448 -3 -2449
-23 -63 c-29 -82 -58 -127 -114 -178 -92 -85 -209 -120 -435 -131 l-143 -6 0
-34 0 -33 1160 0 1160 0 0 33 0 34 -149 7 c-224 10 -335 43 -428 129 -59 54
-89 107 -113 202 -20 77 -20 111 -20 2507 l0 2428 324 0 c177 0 381 -5 452
-10 416 -34 657 -158 782 -402 l32 -64 -2 -2209 -3 -2210 -23 -63 c-29 -82
-58 -127 -114 -178 -92 -85 -209 -120 -435 -131 l-143 -6 0 -34 0 -33 1228 0
c1416 0 1551 6 1884 76 374 79 647 213 854 419 l91 90 23 -40 c40 -70 106
-149 186 -224 223 -208 492 -320 914 -377 159 -22 593 -25 755 -5 493 59 833
202 1100 462 257 250 384 530 417 917 32 371 -49 702 -233 952 -198 270 -521
488 -1127 760 -362 162 -678 326 -850 442 -336 226 -482 510 -482 936 0 460
155 744 493 902 145 68 233 85 442 84 165 -1 187 -3 268 -27 261 -80 401 -227
502 -530 55 -165 95 -438 95 -656 l0 -84 98 6 c393 26 627 259 584 582 -27
204 -150 373 -380 525 -213 141 -481 226 -821 260 -122 12 -449 11 -576 -2z
m-3120 -152 c487 -85 697 -315 782 -856 28 -178 25 -621 -4 -785 -74 -410
-240 -630 -553 -735 -161 -54 -231 -62 -612 -67 l-358 -5 0 1237 0 1237 328
-5 c232 -3 353 -10 417 -21z m1790 -1741 c58 -201 171 -381 355 -565 229 -229
410 -338 1191 -718 421 -205 607 -317 754 -454 205 -192 291 -393 302 -710 17
-468 -141 -798 -474 -989 -266 -152 -679 -187 -983 -84 -441 150 -661 574
-687 1324 l-6 173 -75 -7 c-42 -4 -100 -13 -129 -21 -30 -8 -56 -14 -58 -14
-2 0 -6 30 -10 68 -33 340 -135 577 -339 791 -185 193 -409 313 -741 395 -129
32 -348 64 -500 72 -66 4 -129 10 -140 14 -19 7 -18 8 5 13 14 3 75 11 135 17
241 25 522 97 708 183 250 116 457 320 552 545 31 75 74 224 76 266 1 12 9
-31 19 -94 11 -63 31 -155 45 -205z m-1723 -785 c206 -15 346 -49 478 -116 90
-46 115 -64 190 -138 146 -145 235 -368 282 -706 20 -146 17 -642 -5 -796 -61
-430 -198 -682 -448 -823 -87 -49 -210 -90 -338 -113 -102 -18 -169 -21 -543
-25 l-428 -5 0 1366 0 1366 338 0 c185 0 398 -5 474 -10z"/>
</g>
</svg>
